<svg version="1.1" xmlns="http://www.w3.org/2000/svg" xmlns:xlink="http://www.w3.org/1999/xlink" width="1445.5419921875" height="1348"><defs/><g><g transform="translate(-382,-70) scale(1,1)"><rect fill="#C0C0C0" stroke="none" x="903" y="343" width="250.69970703125" height="175" opacity="0.2"/></g><g transform="translate(-382,-70) scale(1,1)"><rect fill="#ffffff" stroke="none" x="896" y="336" width="250.69970703125" height="175"/></g><g transform="translate(-382,-70) scale(1,1)"><path fill="none" stroke="#000000" d="M 896 336 L 1146.69970703125 336 L 1146.69970703125 511 L 896 511 L 896 336 Z Z" stroke-miterlimit="10"/></g><g transform="translate(-382,-70) scale(1,1)"><path fill="none" stroke="#000000" d="M 896 361 L 1146.69970703125 361" stroke-miterlimit="10"/></g><g transform="translate(-382,-70) scale(1,1)"><path fill="none" stroke="#000000" d="M 896 399 L 1146.69970703125 399" stroke-miterlimit="10"/></g><g transform="translate(-382,-70) scale(1,1)"><g><path fill="none" stroke="none"/><text fill="#000000" stroke="none" font-family="Arial" font-size="13px" font-style="normal" font-weight="bold" text-decoration="none" x="981.9658203125" y="355.5">Interface_SPI</text></g></g><g transform="translate(-382,-70) scale(1,1)"><g><path fill="none" stroke="none"/><text fill="#000000" stroke="none" font-family="Arial" font-size="13px" font-style="normal" font-weight="normal" text-decoration="none" x="901" y="378.5">-short int clickSelection</text></g></g><g transform="translate(-382,-70) scale(1,1)"><g><path fill="none" stroke="none"/><text fill="#000000" stroke="none" font-family="Arial" font-size="13px" font-style="normal" font-weight="normal" text-decoration="none" x="901" y="393.5">-short int socketSelection;</text></g></g><g transform="translate(-382,-70) scale(1,1)"><g><path fill="none" stroke="none"/><text fill="#000000" stroke="none" font-family="Arial" font-size="13px" font-style="normal" font-weight="normal" text-decoration="none" x="901" y="416.5">+void setSocketSelection(short int socket)</text></g></g><g transform="translate(-382,-70) scale(1,1)"><g><path fill="none" stroke="none"/><text fill="#000000" stroke="none" font-family="Arial" font-size="13px" font-style="normal" font-weight="normal" text-decoration="none" x="901" y="431.5">+void setClickSelection(short int click)</text></g></g><g transform="translate(-382,-70) scale(1,1)"><g><path fill="none" stroke="none"/><text fill="#000000" stroke="none" font-family="Arial" font-size="13px" font-style="normal" font-weight="normal" text-decoration="none" x="901" y="446.5">+short int getSocketSelection()</text></g></g><g transform="translate(-382,-70) scale(1,1)"><g><path fill="none" stroke="none"/><text fill="#000000" stroke="none" font-family="Arial" font-size="13px" font-style="normal" font-weight="normal" text-decoration="none" x="901" y="461.5">+short int getClickSelection()</text></g></g><g transform="translate(-382,-70) scale(1,1)"><g><path fill="none" stroke="none"/><text fill="#000000" stroke="none" font-family="Arial" font-size="13px" font-style="normal" font-weight="normal" text-decoration="none" x="901" y="476.5">+string getPinSCK()</text></g></g><g transform="translate(-382,-70) scale(1,1)"><g><path fill="none" stroke="none"/><text fill="#000000" stroke="none" font-family="Arial" font-size="13px" font-style="normal" font-weight="normal" text-decoration="none" x="901" y="491.5">+string getPinMISO()</text></g></g><g transform="translate(-382,-70) scale(1,1)"><g><path fill="none" stroke="none"/><text fill="#000000" stroke="none" font-family="Arial" font-size="13px" font-style="normal" font-weight="normal" text-decoration="none" x="901" y="506.5">+string getPinMOSI()</text></g></g><g transform="translate(-382,-70) scale(1,1)"><rect fill="#C0C0C0" stroke="none" x="903" y="559" width="250.69970703125" height="176" opacity="0.2"/></g><g transform="translate(-382,-70) scale(1,1)"><rect fill="#ffffff" stroke="none" x="896" y="552" width="250.69970703125" height="176"/></g><g transform="translate(-382,-70) scale(1,1)"><path fill="none" stroke="#000000" d="M 896 552 L 1146.69970703125 552 L 1146.69970703125 728 L 896 728 L 896 552 Z Z" stroke-miterlimit="10"/></g><g transform="translate(-382,-70) scale(1,1)"><path fill="none" stroke="#000000" d="M 896 577 L 1146.69970703125 577" stroke-miterlimit="10"/></g><g transform="translate(-382,-70) scale(1,1)"><path fill="none" stroke="#000000" d="M 896 615 L 1146.69970703125 615" stroke-miterlimit="10"/></g><g transform="translate(-382,-70) scale(1,1)"><g><path fill="none" stroke="none"/><text fill="#000000" stroke="none" font-family="Arial" font-size="13px" font-style="normal" font-weight="bold" text-decoration="none" x="976.5576171875" y="571.5">Interface_PWM</text></g></g><g transform="translate(-382,-70) scale(1,1)"><g><path fill="none" stroke="none"/><text fill="#000000" stroke="none" font-family="Arial" font-size="13px" font-style="normal" font-weight="normal" text-decoration="none" x="901" y="594.5">-short int socketSelection</text></g></g><g transform="translate(-382,-70) scale(1,1)"><g><path fill="none" stroke="none"/><text fill="#000000" stroke="none" font-family="Arial" font-size="13px" font-style="normal" font-weight="normal" text-decoration="none" x="901" y="609.5">-short int clickSelection</text></g></g><g transform="translate(-382,-70) scale(1,1)"><g><path fill="none" stroke="none"/><text fill="#000000" stroke="none" font-family="Arial" font-size="13px" font-style="normal" font-weight="normal" text-decoration="none" x="901" y="632.5">+void setSocketSelection(short int socket)</text></g></g><g transform="translate(-382,-70) scale(1,1)"><g><path fill="none" stroke="none"/><text fill="#000000" stroke="none" font-family="Arial" font-size="13px" font-style="normal" font-weight="normal" text-decoration="none" x="901" y="647.5">+void setClickSelection(short int click)</text></g></g><g transform="translate(-382,-70) scale(1,1)"><g><path fill="none" stroke="none"/><text fill="#000000" stroke="none" font-family="Arial" font-size="13px" font-style="normal" font-weight="normal" text-decoration="none" x="901" y="662.5">+short int getSocketSelection()</text></g></g><g transform="translate(-382,-70) scale(1,1)"><g><path fill="none" stroke="none"/><text fill="#000000" stroke="none" font-family="Arial" font-size="13px" font-style="normal" font-weight="normal" text-decoration="none" x="901" y="677.5">+short int getClickSelection()</text></g></g><g transform="translate(-382,-70) scale(1,1)"><g><path fill="none" stroke="none"/><text fill="#000000" stroke="none" font-family="Arial" font-size="13px" font-style="normal" font-weight="normal" text-decoration="none" x="901" y="692.5">+string getPinPWM()</text></g></g><g transform="translate(-382,-70) scale(1,1)"><rect fill="#C0C0C0" stroke="none" x="903" y="775" width="250.69970703125" height="176" opacity="0.2"/></g><g transform="translate(-382,-70) scale(1,1)"><rect fill="#ffffff" stroke="none" x="896" y="768" width="250.69970703125" height="176"/></g><g transform="translate(-382,-70) scale(1,1)"><path fill="none" stroke="#000000" d="M 896 768 L 1146.69970703125 768 L 1146.69970703125 944 L 896 944 L 896 768 Z Z" stroke-miterlimit="10"/></g><g transform="translate(-382,-70) scale(1,1)"><path fill="none" stroke="#000000" d="M 896 793 L 1146.69970703125 793" stroke-miterlimit="10"/></g><g transform="translate(-382,-70) scale(1,1)"><path fill="none" stroke="#000000" d="M 896 831 L 1146.69970703125 831" stroke-miterlimit="10"/></g><g transform="translate(-382,-70) scale(1,1)"><g><path fill="none" stroke="none"/><text fill="#000000" stroke="none" font-family="Arial" font-size="13px" font-style="normal" font-weight="bold" text-decoration="none" x="982.32763671875" y="787.5">Interface_I2C</text></g></g><g transform="translate(-382,-70) scale(1,1)"><g><path fill="none" stroke="none"/><text fill="#000000" stroke="none" font-family="Arial" font-size="13px" font-style="normal" font-weight="normal" text-decoration="none" x="901" y="810.5">-short int socketSelection</text></g></g><g transform="translate(-382,-70) scale(1,1)"><g><path fill="none" stroke="none"/><text fill="#000000" stroke="none" font-family="Arial" font-size="13px" font-style="normal" font-weight="normal" text-decoration="none" x="901" y="825.5">-short int clickSelection</text></g></g><g transform="translate(-382,-70) scale(1,1)"><g><path fill="none" stroke="none"/><text fill="#000000" stroke="none" font-family="Arial" font-size="13px" font-style="normal" font-weight="normal" text-decoration="none" x="901" y="848.5">+void setSocketSelection(short int socket)</text></g></g><g transform="translate(-382,-70) scale(1,1)"><g><path fill="none" stroke="none"/><text fill="#000000" stroke="none" font-family="Arial" font-size="13px" font-style="normal" font-weight="normal" text-decoration="none" x="901" y="863.5">+void setClickSelection(short int click)</text></g></g><g transform="translate(-382,-70) scale(1,1)"><g><path fill="none" stroke="none"/><text fill="#000000" stroke="none" font-family="Arial" font-size="13px" font-style="normal" font-weight="normal" text-decoration="none" x="901" y="878.5">+short int getSocketSelection()</text></g></g><g transform="translate(-382,-70) scale(1,1)"><g><path fill="none" stroke="none"/><text fill="#000000" stroke="none" font-family="Arial" font-size="13px" font-style="normal" font-weight="normal" text-decoration="none" x="901" y="893.5">+short int getClickSelection()</text></g></g><g transform="translate(-382,-70) scale(1,1)"><g><path fill="none" stroke="none"/><text fill="#000000" stroke="none" font-family="Arial" font-size="13px" font-style="normal" font-weight="normal" text-decoration="none" x="901" y="908.5">+string getPinSCL()</text></g></g><g transform="translate(-382,-70) scale(1,1)"><g><path fill="none" stroke="none"/><text fill="#000000" stroke="none" font-family="Arial" font-size="13px" font-style="normal" font-weight="normal" text-decoration="none" x="901" y="923.5">+string getPinSDA()</text></g></g><g transform="translate(-382,-70) scale(1,1)"><rect fill="#C0C0C0" stroke="none" x="903" y="983" width="250.69970703125" height="175" opacity="0.2"/></g><g transform="translate(-382,-70) scale(1,1)"><rect fill="#ffffff" stroke="none" x="896" y="976" width="250.69970703125" height="175"/></g><g transform="translate(-382,-70) scale(1,1)"><path fill="none" stroke="#000000" d="M 896 976 L 1146.69970703125 976 L 1146.69970703125 1151 L 896 1151 L 896 976 Z Z" stroke-miterlimit="10"/></g><g transform="translate(-382,-70) scale(1,1)"><path fill="none" stroke="#000000" d="M 896 1001 L 1146.69970703125 1001" stroke-miterlimit="10"/></g><g transform="translate(-382,-70) scale(1,1)"><path fill="none" stroke="#000000" d="M 896 1039 L 1146.69970703125 1039" stroke-miterlimit="10"/></g><g transform="translate(-382,-70) scale(1,1)"><g><path fill="none" stroke="none"/><text fill="#000000" stroke="none" font-family="Arial" font-size="13px" font-style="normal" font-weight="bold" text-decoration="none" x="972.203125" y="995.5">Interface_Analog</text></g></g><g transform="translate(-382,-70) scale(1,1)"><g><path fill="none" stroke="none"/><text fill="#000000" stroke="none" font-family="Arial" font-size="13px" font-style="normal" font-weight="normal" text-decoration="none" x="901" y="1018.5">-short int socketSelection</text></g></g><g transform="translate(-382,-70) scale(1,1)"><g><path fill="none" stroke="none"/><text fill="#000000" stroke="none" font-family="Arial" font-size="13px" font-style="normal" font-weight="normal" text-decoration="none" x="901" y="1033.5">-short int clickSelection</text></g></g><g transform="translate(-382,-70) scale(1,1)"><g><path fill="none" stroke="none"/><text fill="#000000" stroke="none" font-family="Arial" font-size="13px" font-style="normal" font-weight="normal" text-decoration="none" x="901" y="1056.5">+void setSocketSelection(short int socket)</text></g></g><g transform="translate(-382,-70) scale(1,1)"><g><path fill="none" stroke="none"/><text fill="#000000" stroke="none" font-family="Arial" font-size="13px" font-style="normal" font-weight="normal" text-decoration="none" x="901" y="1071.5">+void setClickSelection(short int click)</text></g></g><g transform="translate(-382,-70) scale(1,1)"><g><path fill="none" stroke="none"/><text fill="#000000" stroke="none" font-family="Arial" font-size="13px" font-style="normal" font-weight="normal" text-decoration="none" x="901" y="1086.5">+short int getSocketSelection()</text></g></g><g transform="translate(-382,-70) scale(1,1)"><g><path fill="none" stroke="none"/><text fill="#000000" stroke="none" font-family="Arial" font-size="13px" font-style="normal" font-weight="normal" text-decoration="none" x="901" y="1101.5">+short int getClickSelection()</text></g></g><g transform="translate(-382,-70) scale(1,1)"><g><path fill="none" stroke="none"/><text fill="#000000" stroke="none" font-family="Arial" font-size="13px" font-style="normal" font-weight="normal" text-decoration="none" x="901" y="1116.5">+string getPinAnalog()</text></g></g><g transform="translate(-382,-70) scale(1,1)"><rect fill="#C0C0C0" stroke="none" x="543" y="983" width="247" height="176" opacity="0.2"/></g><g transform="translate(-382,-70) scale(1,1)"><rect fill="#ffffff" stroke="none" x="536" y="976" width="247" height="176"/></g><g transform="translate(-382,-70) scale(1,1)"><path fill="none" stroke="#000000" d="M 536 976 L 783 976 L 783 1152 L 536 1152 L 536 976 Z Z" stroke-miterlimit="10"/></g><g transform="translate(-382,-70) scale(1,1)"><path fill="none" stroke="#000000" d="M 536 1001 L 783 1001" stroke-miterlimit="10"/></g><g transform="translate(-382,-70) scale(1,1)"><path fill="none" stroke="#000000" d="M 536 1024 L 783 1024" stroke-miterlimit="10"/></g><g transform="translate(-382,-70) scale(1,1)"><g><path fill="none" stroke="none"/><text fill="#000000" stroke="none" font-family="Arial" font-size="13px" font-style="normal" font-weight="bold" text-decoration="none" x="607.84912109375" y="995.5">Click_Temp2Hum</text></g></g><g transform="translate(-382,-70) scale(1,1)"><g><path fill="none" stroke="none"/><text fill="#000000" stroke="none" font-family="Arial" font-size="13px" font-style="normal" font-weight="normal" text-decoration="none" x="541" y="1018.5">+Interface_I2C pinout</text></g></g><g transform="translate(-382,-70) scale(1,1)"><g><path fill="none" stroke="none"/><text fill="#000000" stroke="none" font-family="Arial" font-size="13px" font-style="normal" font-weight="normal" text-decoration="none" x="541" y="1041.5">+float getTemp()</text></g></g><g transform="translate(-382,-70) scale(1,1)"><g><path fill="none" stroke="none"/><text fill="#000000" stroke="none" font-family="Arial" font-size="13px" font-style="normal" font-weight="normal" text-decoration="none" x="541" y="1056.5">+float getHumidity()</text></g></g><g transform="translate(-382,-70) scale(1,1)"><rect fill="#C0C0C0" stroke="none" x="1279" y="343" width="248" height="176" opacity="0.2"/></g><g transform="translate(-382,-70) scale(1,1)"><rect fill="#ffffff" stroke="none" x="1272" y="336" width="248" height="176"/></g><g transform="translate(-382,-70) scale(1,1)"><path fill="none" stroke="#000000" d="M 1272 336 L 1520 336 L 1520 512 L 1272 512 L 1272 336 Z Z" stroke-miterlimit="10"/></g><g transform="translate(-382,-70) scale(1,1)"><path fill="none" stroke="#000000" d="M 1272 361 L 1520 361" stroke-miterlimit="10"/></g><g transform="translate(-382,-70) scale(1,1)"><path fill="none" stroke="#000000" d="M 1272 384 L 1520 384" stroke-miterlimit="10"/></g><g transform="translate(-382,-70) scale(1,1)"><g><path fill="none" stroke="none"/><text fill="#000000" stroke="none" font-family="Arial" font-size="13px" font-style="normal" font-weight="bold" text-decoration="none" x="1336.398681640625" y="355.5">Click_USB_UART_3</text></g></g><g transform="translate(-382,-70) scale(1,1)"><g><path fill="none" stroke="none"/><text fill="#000000" stroke="none" font-family="Arial" font-size="13px" font-style="normal" font-weight="normal" text-decoration="none" x="1277" y="378.5">+Interface_SPI pinout</text></g></g><g transform="translate(-382,-70) scale(1,1)"><g><path fill="none" stroke="none"/><text fill="#000000" stroke="none" font-family="Arial" font-size="13px" font-style="normal" font-weight="normal" text-decoration="none" x="1277" y="401.5">+void usbuart3_writeByte(uint8_t input)</text></g></g><g transform="translate(-382,-70) scale(1,1)"><g><path fill="none" stroke="none"/><text fill="#000000" stroke="none" font-family="Arial" font-size="13px" font-style="normal" font-weight="normal" text-decoration="none" x="1277" y="416.5">+uint8_t usbuart3_readByte()</text></g></g><g transform="translate(-382,-70) scale(1,1)"><g><path fill="none" stroke="none"/><text fill="#000000" stroke="none" font-family="Arial" font-size="13px" font-style="normal" font-weight="normal" text-decoration="none" x="1277" y="431.5">+uint8_t usbuart3_byteReady()</text></g></g><g transform="translate(-382,-70) scale(1,1)"><rect fill="#C0C0C0" stroke="none" x="399" y="559" width="388.03759765625" height="176" opacity="0.2"/></g><g transform="translate(-382,-70) scale(1,1)"><rect fill="#ffffff" stroke="none" x="392" y="552" width="388.03759765625" height="176"/></g><g transform="translate(-382,-70) scale(1,1)"><path fill="none" stroke="#000000" d="M 392 552 L 780.03759765625 552 L 780.03759765625 728 L 392 728 L 392 552 Z Z" stroke-miterlimit="10"/></g><g transform="translate(-382,-70) scale(1,1)"><path fill="none" stroke="#000000" d="M 392 577 L 780.03759765625 577" stroke-miterlimit="10"/></g><g transform="translate(-382,-70) scale(1,1)"><path fill="none" stroke="#000000" d="M 392 600 L 780.03759765625 600" stroke-miterlimit="10"/></g><g transform="translate(-382,-70) scale(1,1)"><g><path fill="none" stroke="none"/><text fill="#000000" stroke="none" font-family="Arial" font-size="13px" font-style="normal" font-weight="bold" text-decoration="none" x="549.173828125" y="571.5">Click_Color5</text></g></g><g transform="translate(-382,-70) scale(1,1)"><g><path fill="none" stroke="none"/><text fill="#000000" stroke="none" font-family="Arial" font-size="13px" font-style="normal" font-weight="normal" text-decoration="none" x="397" y="594.5">+Interface_I2C pinout</text></g></g><g transform="translate(-382,-70) scale(1,1)"><g><path fill="none" stroke="none"/><text fill="#000000" stroke="none" font-family="Arial" font-size="13px" font-style="normal" font-weight="normal" text-decoration="none" x="397" y="617.5">+void color5_setConfiguration(uint8_t reg, uint8_t _data)</text></g></g><g transform="translate(-382,-70) scale(1,1)"><g><path fill="none" stroke="none"/><text fill="#000000" stroke="none" font-family="Arial" font-size="13px" font-style="normal" font-weight="normal" text-decoration="none" x="397" y="632.5">+void color5_setLedDriver(uint8_t red, uint8_t green, uint8_t blue)</text></g></g><g transform="translate(-382,-70) scale(1,1)"><g><path fill="none" stroke="none"/><text fill="#000000" stroke="none" font-family="Arial" font-size="13px" font-style="normal" font-weight="normal" text-decoration="none" x="397" y="647.5">+uint16_t color5_readData(uint8_t reg)</text></g></g><g transform="translate(-382,-70) scale(1,1)"><g><path fill="none" stroke="none"/><text fill="#000000" stroke="none" font-family="Arial" font-size="13px" font-style="normal" font-weight="normal" text-decoration="none" x="397" y="662.5">+uint8_t color5_getInterrupt()</text></g></g><g transform="translate(-382,-70) scale(1,1)"><rect fill="#C0C0C0" stroke="none" x="1279" y="551" width="248" height="176" opacity="0.2"/></g><g transform="translate(-382,-70) scale(1,1)"><rect fill="#ffffff" stroke="none" x="1272" y="544" width="248" height="176"/></g><g transform="translate(-382,-70) scale(1,1)"><path fill="none" stroke="#000000" d="M 1272 544 L 1520 544 L 1520 720 L 1272 720 L 1272 544 Z Z" stroke-miterlimit="10"/></g><g transform="translate(-382,-70) scale(1,1)"><path fill="none" stroke="#000000" d="M 1272 569 L 1520 569" stroke-miterlimit="10"/></g><g transform="translate(-382,-70) scale(1,1)"><path fill="none" stroke="#000000" d="M 1272 607 L 1520 607" stroke-miterlimit="10"/></g><g transform="translate(-382,-70) scale(1,1)"><g><path fill="none" stroke="none"/><text fill="#000000" stroke="none" font-family="Arial" font-size="13px" font-style="normal" font-weight="bold" text-decoration="none" x="1346.50732421875" y="563.5">Click_BarGraph2</text></g></g><g transform="translate(-382,-70) scale(1,1)"><g><path fill="none" stroke="none"/><text fill="#000000" stroke="none" font-family="Arial" font-size="13px" font-style="normal" font-weight="normal" text-decoration="none" x="1277" y="586.5">+Interface_SPI pinout</text></g></g><g transform="translate(-382,-70) scale(1,1)"><g><path fill="none" stroke="none"/><text fill="#000000" stroke="none" font-family="Arial" font-size="13px" font-style="normal" font-weight="normal" text-decoration="none" x="1277" y="601.5">+Interface_PWM pinout2</text></g></g><g transform="translate(-382,-70) scale(1,1)"><g><path fill="none" stroke="none"/><text fill="#000000" stroke="none" font-family="Arial" font-size="13px" font-style="normal" font-weight="normal" text-decoration="none" x="1277" y="624.5">+bargraph2_write(uint8_t regValue)</text></g></g><g transform="translate(-382,-70) scale(1,1)"><g><path fill="none" stroke="none"/><text fill="#000000" stroke="none" font-family="Arial" font-size="13px" font-style="normal" font-weight="normal" text-decoration="none" x="1277" y="639.5">+void bargraph2_reset()</text></g></g><g transform="translate(-382,-70) scale(1,1)"><g><path fill="none" stroke="none"/><text fill="#000000" stroke="none" font-family="Arial" font-size="13px" font-style="normal" font-weight="normal" text-decoration="none" x="1277" y="654.5">+void bargraph2_set(uint8_t value)</text></g></g><g transform="translate(-382,-70) scale(1,1)"><rect fill="#C0C0C0" stroke="none" x="495" y="343" width="294.8095703125" height="176" opacity="0.2"/></g><g transform="translate(-382,-70) scale(1,1)"><rect fill="#ffffff" stroke="none" x="488" y="336" width="294.8095703125" height="176"/></g><g transform="translate(-382,-70) scale(1,1)"><path fill="none" stroke="#000000" d="M 488 336 L 782.8095703125 336 L 782.8095703125 512 L 488 512 L 488 336 Z Z" stroke-miterlimit="10"/></g><g transform="translate(-382,-70) scale(1,1)"><path fill="none" stroke="#000000" d="M 488 361 L 782.8095703125 361" stroke-miterlimit="10"/></g><g transform="translate(-382,-70) scale(1,1)"><path fill="none" stroke="#000000" d="M 488 399 L 782.8095703125 399" stroke-miterlimit="10"/></g><g transform="translate(-382,-70) scale(1,1)"><g><path fill="none" stroke="none"/><text fill="#000000" stroke="none" font-family="Arial" font-size="13px" font-style="normal" font-weight="bold" text-decoration="none" x="598.197998046875" y="355.5">Click_Accel5</text></g></g><g transform="translate(-382,-70) scale(1,1)"><g><path fill="none" stroke="none"/><text fill="#000000" stroke="none" font-family="Arial" font-size="13px" font-style="normal" font-weight="normal" text-decoration="none" x="493" y="378.5">+Interface_SPI pinout</text></g></g><g transform="translate(-382,-70) scale(1,1)"><g><path fill="none" stroke="none"/><text fill="#000000" stroke="none" font-family="Arial" font-size="13px" font-style="normal" font-weight="normal" text-decoration="none" x="493" y="393.5">+Interface_I2C pinout2</text></g></g><g transform="translate(-382,-70) scale(1,1)"><g><path fill="none" stroke="none"/><text fill="#000000" stroke="none" font-family="Arial" font-size="13px" font-style="normal" font-weight="normal" text-decoration="none" x="493" y="416.5">+int16_t accel5_getAxis(uint8_t axis)</text></g></g><g transform="translate(-382,-70) scale(1,1)"><g><path fill="none" stroke="none"/><text fill="#000000" stroke="none" font-family="Arial" font-size="13px" font-style="normal" font-weight="normal" text-decoration="none" x="493" y="431.5">+uint8_t accel5_init(uint8_t mode, uint8_t range)</text></g></g><g transform="translate(-382,-70) scale(1,1)"><g><path fill="none" stroke="none"/><text fill="#000000" stroke="none" font-family="Arial" font-size="13px" font-style="normal" font-weight="normal" text-decoration="none" x="493" y="446.5">+void accel5_writeByte(uint8_t reg, uint8_t _data)</text></g></g><g transform="translate(-382,-70) scale(1,1)"><rect fill="#C0C0C0" stroke="none" x="1279" y="775" width="531.79931640625" height="176" opacity="0.2"/></g><g transform="translate(-382,-70) scale(1,1)"><rect fill="#ffffff" stroke="none" x="1272" y="768" width="531.79931640625" height="176"/></g><g transform="translate(-382,-70) scale(1,1)"><path fill="none" stroke="#000000" d="M 1272 768 L 1803.79931640625 768 L 1803.79931640625 944 L 1272 944 L 1272 768 Z Z" stroke-miterlimit="10"/></g><g transform="translate(-382,-70) scale(1,1)"><path fill="none" stroke="#000000" d="M 1272 793 L 1803.79931640625 793" stroke-miterlimit="10"/></g><g transform="translate(-382,-70) scale(1,1)"><path fill="none" stroke="#000000" d="M 1272 831 L 1803.79931640625 831" stroke-miterlimit="10"/></g><g transform="translate(-382,-70) scale(1,1)"><g><path fill="none" stroke="none"/><text fill="#000000" stroke="none" font-family="Arial" font-size="13px" font-style="normal" font-weight="bold" text-decoration="none" x="1484.801513671875" y="787.5">Click_Gaussmeter</text></g></g><g transform="translate(-382,-70) scale(1,1)"><g><path fill="none" stroke="none"/><text fill="#000000" stroke="none" font-family="Arial" font-size="13px" font-style="normal" font-weight="normal" text-decoration="none" x="1277" y="810.5">+Interface_SPI pinout</text></g></g><g transform="translate(-382,-70) scale(1,1)"><g><path fill="none" stroke="none"/><text fill="#000000" stroke="none" font-family="Arial" font-size="13px" font-style="normal" font-weight="normal" text-decoration="none" x="1277" y="825.5">+Interface_I2C pinout2</text></g></g><g transform="translate(-382,-70) scale(1,1)"><g><path fill="none" stroke="none"/><text fill="#000000" stroke="none" font-family="Arial" font-size="13px" font-style="normal" font-weight="normal" text-decoration="none" x="1277" y="848.5">+void gaussmeter_enableMeasure(uint8_t zAxis, uint8_t yAxis, uint8_t xAxis, uint8_t temp)</text></g></g><g transform="translate(-382,-70) scale(1,1)"><g><path fill="none" stroke="none"/><text fill="#000000" stroke="none" font-family="Arial" font-size="13px" font-style="normal" font-weight="normal" text-decoration="none" x="1277" y="863.5">+uint8_t gaussmeter_sendCommand(uint8_t command_)</text></g></g><g transform="translate(-382,-70) scale(1,1)"><g><path fill="none" stroke="none"/><text fill="#000000" stroke="none" font-family="Arial" font-size="13px" font-style="normal" font-weight="normal" text-decoration="none" x="1277" y="878.5">+uint8_t gaussmeter_readReg(uint8_t register_address, uint16_t *dataOut)</text></g></g><g transform="translate(-382,-70) scale(1,1)"><g><path fill="none" stroke="none"/><text fill="#000000" stroke="none" font-family="Arial" font-size="13px" font-style="normal" font-weight="normal" text-decoration="none" x="1277" y="893.5">+uint8_t gaussmeter_writeReg(uint8_t register_address, uint16_t transfer_data)</text></g></g><g transform="translate(-382,-70) scale(1,1)"><g><path fill="none" stroke="none"/><text fill="#000000" stroke="none" font-family="Arial" font-size="13px" font-style="normal" font-weight="normal" text-decoration="none" x="1277" y="908.5">+uint8_t gaussmeter_getData(float *dataOut)</text></g></g><g transform="translate(-382,-70) scale(1,1)"><rect fill="#C0C0C0" stroke="none" x="503" y="775" width="283.9677734375" height="176" opacity="0.2"/></g><g transform="translate(-382,-70) scale(1,1)"><rect fill="#ffffff" stroke="none" x="496" y="768" width="283.9677734375" height="176"/></g><g transform="translate(-382,-70) scale(1,1)"><path fill="none" stroke="#000000" d="M 496 768 L 779.9677734375 768 L 779.9677734375 944 L 496 944 L 496 768 Z Z" stroke-miterlimit="10"/></g><g transform="translate(-382,-70) scale(1,1)"><path fill="none" stroke="#000000" d="M 496 793 L 779.9677734375 793" stroke-miterlimit="10"/></g><g transform="translate(-382,-70) scale(1,1)"><path fill="none" stroke="#000000" d="M 496 816 L 779.9677734375 816" stroke-miterlimit="10"/></g><g transform="translate(-382,-70) scale(1,1)"><g><path fill="none" stroke="none"/><text fill="#000000" stroke="none" font-family="Arial" font-size="13px" font-style="normal" font-weight="bold" text-decoration="none" x="583.78759765625" y="787.5">Click_Lightranger3</text></g></g><g transform="translate(-382,-70) scale(1,1)"><g><path fill="none" stroke="none"/><text fill="#000000" stroke="none" font-family="Arial" font-size="13px" font-style="normal" font-weight="normal" text-decoration="none" x="501" y="810.5">+Interface_I2C pinout</text></g></g><g transform="translate(-382,-70) scale(1,1)"><g><path fill="none" stroke="none"/><text fill="#000000" stroke="none" font-family="Arial" font-size="13px" font-style="normal" font-weight="normal" text-decoration="none" x="501" y="833.5">+uint8_t lightranger3_init()</text></g></g><g transform="translate(-382,-70) scale(1,1)"><g><path fill="none" stroke="none"/><text fill="#000000" stroke="none" font-family="Arial" font-size="13px" font-style="normal" font-weight="normal" text-decoration="none" x="501" y="848.5">+uint8_t lightranger3_takeSingleMeasurement()</text></g></g><g transform="translate(-382,-70) scale(1,1)"><g><path fill="none" stroke="none"/><text fill="#000000" stroke="none" font-family="Arial" font-size="13px" font-style="normal" font-weight="normal" text-decoration="none" x="501" y="863.5">+uint16_t lightranger3_getDistance()</text></g></g><g transform="translate(-382,-70) scale(1,1)"><rect fill="#C0C0C0" stroke="none" x="903" y="1239" width="255" height="176" opacity="0.2"/></g><g transform="translate(-382,-70) scale(1,1)"><rect fill="#ffffff" stroke="none" x="896" y="1232" width="255" height="176"/></g><g transform="translate(-382,-70) scale(1,1)"><path fill="none" stroke="#000000" d="M 896 1232 L 1151 1232 L 1151 1408 L 896 1408 L 896 1232 Z Z" stroke-miterlimit="10"/></g><g transform="translate(-382,-70) scale(1,1)"><path fill="none" stroke="#000000" d="M 896 1257 L 1151 1257" stroke-miterlimit="10"/></g><g transform="translate(-382,-70) scale(1,1)"><path fill="none" stroke="#000000" d="M 896 1280 L 1151 1280" stroke-miterlimit="10"/></g><g transform="translate(-382,-70) scale(1,1)"><g><path fill="none" stroke="none"/><text fill="#000000" stroke="none" font-family="Arial" font-size="13px" font-style="normal" font-weight="bold" text-decoration="none" x="984.484130859375" y="1251.5">Click_Alcohol</text></g></g><g transform="translate(-382,-70) scale(1,1)"><g><path fill="none" stroke="none"/><text fill="#000000" stroke="none" font-family="Arial" font-size="13px" font-style="normal" font-weight="normal" text-decoration="none" x="901" y="1274.5">+Interface_Analog pinout</text></g></g><g transform="translate(-382,-70) scale(1,1)"><g><path fill="none" stroke="none"/><text fill="#000000" stroke="none" font-family="Arial" font-size="13px" font-style="normal" font-weight="normal" text-decoration="none" x="901" y="1297.5">+float getAlcoholLevel()</text></g></g><g transform="translate(-382,-70) scale(1,1)"><rect fill="#C0C0C0" stroke="none" x="1279" y="983" width="545.5419921875" height="176" opacity="0.2"/></g><g transform="translate(-382,-70) scale(1,1)"><rect fill="#ffffff" stroke="none" x="1272" y="976" width="545.5419921875" height="176"/></g><g transform="translate(-382,-70) scale(1,1)"><path fill="none" stroke="#000000" d="M 1272 976 L 1817.5419921875 976 L 1817.5419921875 1152 L 1272 1152 L 1272 976 Z Z" stroke-miterlimit="10"/></g><g transform="translate(-382,-70) scale(1,1)"><path fill="none" stroke="#000000" d="M 1272 1001 L 1817.5419921875 1001" stroke-miterlimit="10"/></g><g transform="translate(-382,-70) scale(1,1)"><path fill="none" stroke="#000000" d="M 1272 1024 L 1817.5419921875 1024" stroke-miterlimit="10"/></g><g transform="translate(-382,-70) scale(1,1)"><g><path fill="none" stroke="none"/><text fill="#000000" stroke="none" font-family="Arial" font-size="13px" font-style="normal" font-weight="bold" text-decoration="none" x="1498.899658203125" y="995.5">Click_AirQuality</text></g></g><g transform="translate(-382,-70) scale(1,1)"><g><path fill="none" stroke="none"/><text fill="#000000" stroke="none" font-family="Arial" font-size="13px" font-style="normal" font-weight="normal" text-decoration="none" x="1277" y="1018.5">+Interface_Analog pinout</text></g></g><g transform="translate(-382,-70) scale(1,1)"><g><path fill="none" stroke="none"/><text fill="#000000" stroke="none" font-family="Arial" font-size="13px" font-style="normal" font-weight="normal" text-decoration="none" x="1277" y="1041.5">+float airquality_getCorrectionFactor(float temperature, float humidity)</text></g></g><g transform="translate(-382,-70) scale(1,1)"><g><path fill="none" stroke="none"/><text fill="#000000" stroke="none" font-family="Arial" font-size="13px" font-style="normal" font-weight="normal" text-decoration="none" x="1277" y="1056.5">+float airquality_getResistance(uint32_t adcValue)</text></g></g><g transform="translate(-382,-70) scale(1,1)"><g><path fill="none" stroke="none"/><text fill="#000000" stroke="none" font-family="Arial" font-size="13px" font-style="normal" font-weight="normal" text-decoration="none" x="1277" y="1071.5">+float airquality_getCorrectedResistance(float temperature, float humidity, uint32_t adcValue)</text></g></g><g transform="translate(-382,-70) scale(1,1)"><rect fill="#C0C0C0" stroke="none" x="903" y="87" width="248" height="176" opacity="0.2"/></g><g transform="translate(-382,-70) scale(1,1)"><rect fill="#ffffff" stroke="none" x="896" y="80" width="248" height="176"/></g><g transform="translate(-382,-70) scale(1,1)"><path fill="none" stroke="#000000" d="M 896 80 L 1144 80 L 1144 256 L 896 256 L 896 80 Z Z" stroke-miterlimit="10"/></g><g transform="translate(-382,-70) scale(1,1)"><path fill="none" stroke="#000000" d="M 896 105 L 1144 105" stroke-miterlimit="10"/></g><g transform="translate(-382,-70) scale(1,1)"><path fill="none" stroke="#000000" d="M 896 128 L 1144 128" stroke-miterlimit="10"/></g><g transform="translate(-382,-70) scale(1,1)"><g><path fill="none" stroke="none"/><text fill="#000000" stroke="none" font-family="Arial" font-size="13px" font-style="normal" font-weight="bold" text-decoration="none" x="977.385009765625" y="99.5">Click_MicroSD</text></g></g><g transform="translate(-382,-70) scale(1,1)"><g><path fill="none" stroke="none"/><text fill="#000000" stroke="none" font-family="Arial" font-size="13px" font-style="normal" font-weight="normal" text-decoration="none" x="901" y="122.5">+Interface_SPI pinout</text></g></g><g transform="translate(-382,-70) scale(1,1)"><g><path fill="none" stroke="none"/><text fill="#000000" stroke="none" font-family="Arial" font-size="13px" font-style="normal" font-weight="normal" text-decoration="none" x="901" y="145.5">+File openFile()</text></g></g><g transform="translate(-382,-70) scale(1,1)"><g><path fill="none" stroke="none"/><text fill="#000000" stroke="none" font-family="Arial" font-size="13px" font-style="normal" font-weight="normal" text-decoration="none" x="901" y="160.5">+File saveFile()</text></g></g><g transform="translate(-382,-70) scale(1,1)"><g><path fill="none" stroke="none"/><text fill="#000000" stroke="none" font-family="Arial" font-size="13px" font-style="normal" font-weight="normal" text-decoration="none" x="901" y="175.5">+File closeFile()</text></g></g><g transform="translate(-382,-70) scale(1,1)"><path fill="none" stroke="#000000" d="M 896 920 L 864 920 L 864 1064 L 783 1064" stroke-miterlimit="10"/></g><g transform="translate(-382,-70) scale(1,1)"><path fill="#000000" stroke="none" d="M 793.1626748576241 1059.7904822439841 L 783 1064 L 793.1626748576241 1068.2095177560159 L 805 1064"/></g><g transform="translate(-382,-70) scale(1,1)"><path fill="none" stroke="#000000" d="M 793.1626748576241 1059.7904822439841 L 783 1064 L 793.1626748576241 1068.2095177560159 L 805 1064 L 793.1626748576241 1059.7904822439841" stroke-miterlimit="10"/></g><g transform="translate(-382,-70) scale(1,1)"><path fill="none" stroke="#000000" d="M 896 832 L 816 832 L 816 640 L 780 640" stroke-miterlimit="10"/></g><g transform="translate(-382,-70) scale(1,1)"><path fill="#000000" stroke="none" d="M 790.1626748576241 635.790482243984 L 780 640 L 790.1626748576241 644.209517756016 L 802 640"/></g><g transform="translate(-382,-70) scale(1,1)"><path fill="none" stroke="#000000" d="M 790.1626748576241 635.790482243984 L 780 640 L 790.1626748576241 644.209517756016 L 802 640 L 790.1626748576241 635.790482243984" stroke-miterlimit="10"/></g><g transform="translate(-382,-70) scale(1,1)"><path fill="none" stroke="#000000" d="M 895 856 L 781 856" stroke-miterlimit="10"/></g><g transform="translate(-382,-70) scale(1,1)"><path fill="#000000" stroke="none" d="M 791.1626748576241 851.790482243984 L 781 856 L 791.1626748576241 860.209517756016 L 803 856"/></g><g transform="translate(-382,-70) scale(1,1)"><path fill="none" stroke="#000000" d="M 791.1626748576241 851.790482243984 L 781 856 L 791.1626748576241 860.209517756016 L 803 856 L 791.1626748576241 851.790482243984" stroke-miterlimit="10"/></g><g transform="translate(-382,-70) scale(1,1)"><path fill="none" stroke="#000000" d="M 1021 335 L 1020 257" stroke-miterlimit="10"/></g><g transform="translate(-382,-70) scale(1,1)"><path fill="#000000" stroke="none" d="M 1024.3394518457796 267.1078760221008 L 1020 257 L 1015.9211081481628 267.2158035054036 L 1020.2820281051514 278.99819220181297"/></g><g transform="translate(-382,-70) scale(1,1)"><path fill="none" stroke="#000000" d="M 1024.3394518457796 267.1078760221008 L 1020 257 L 1015.9211081481628 267.2158035054036 L 1020.2820281051514 278.99819220181297 L 1024.3394518457796 267.1078760221008" stroke-miterlimit="10"/></g><g transform="translate(-382,-70) scale(1,1)"><path fill="none" stroke="#000000" d="M 1022 1152 L 1022 1231" stroke-miterlimit="10"/></g><g transform="translate(-382,-70) scale(1,1)"><path fill="#000000" stroke="none" d="M 1017.790482243984 1220.837325142376 L 1022 1231 L 1026.2095177560159 1220.837325142376 L 1022 1209"/></g><g transform="translate(-382,-70) scale(1,1)"><path fill="none" stroke="#000000" d="M 1017.790482243984 1220.837325142376 L 1022 1231 L 1026.2095177560159 1220.837325142376 L 1022 1209 L 1017.790482243984 1220.837325142376" stroke-miterlimit="10"/></g><g transform="translate(-382,-70) scale(1,1)"><path fill="none" stroke="#000000" d="M 1148 1063 L 1271 1063" stroke-miterlimit="10"/></g><g transform="translate(-382,-70) scale(1,1)"><path fill="#000000" stroke="none" d="M 1260.837325142376 1067.2095177560159 L 1271 1063 L 1260.837325142376 1058.7904822439841 L 1249 1063"/></g><g transform="translate(-382,-70) scale(1,1)"><path fill="none" stroke="#000000" d="M 1260.837325142376 1067.2095177560159 L 1271 1063 L 1260.837325142376 1058.7904822439841 L 1249 1063 L 1260.837325142376 1067.2095177560159" stroke-miterlimit="10"/></g><g transform="translate(-382,-70) scale(1,1)"><path fill="none" stroke="#000000" d="M 896 792 L 848 792 L 848 456 L 783 456" stroke-miterlimit="10"/></g><g transform="translate(-382,-70) scale(1,1)"><path fill="#000000" stroke="none" d="M 793.1626748576241 451.790482243984 L 783 456 L 793.1626748576241 460.209517756016 L 805 456"/></g><g transform="translate(-382,-70) scale(1,1)"><path fill="none" stroke="#000000" d="M 793.1626748576241 451.790482243984 L 783 456 L 793.1626748576241 460.209517756016 L 805 456 L 793.1626748576241 451.790482243984" stroke-miterlimit="10"/></g><g transform="translate(-382,-70) scale(1,1)"><path fill="none" stroke="#000000" d="M 896 424 L 783 424" stroke-miterlimit="10"/></g><g transform="translate(-382,-70) scale(1,1)"><path fill="#000000" stroke="none" d="M 793.1626748576241 419.790482243984 L 783 424 L 793.1626748576241 428.209517756016 L 805 424"/></g><g transform="translate(-382,-70) scale(1,1)"><path fill="none" stroke="#000000" d="M 793.1626748576241 419.790482243984 L 783 424 L 793.1626748576241 428.209517756016 L 805 424 L 793.1626748576241 419.790482243984" stroke-miterlimit="10"/></g><g transform="translate(-382,-70) scale(1,1)"><path fill="none" stroke="#000000" d="M 1148 423 L 1271 424" stroke-miterlimit="10"/></g><g transform="translate(-382,-70) scale(1,1)"><path fill="#000000" stroke="none" d="M 1260.8034384025098 428.1267579997603 L 1271 424 L 1260.871883583682 419.7080007155746 L 1249.0007270443996 423.8211441223122"/></g><g transform="translate(-382,-70) scale(1,1)"><path fill="none" stroke="#000000" d="M 1260.8034384025098 428.1267579997603 L 1271 424 L 1260.871883583682 419.7080007155746 L 1249.0007270443996 423.8211441223122 L 1260.8034384025098 428.1267579997603" stroke-miterlimit="10"/></g><g transform="translate(-382,-70) scale(1,1)"><path fill="none" stroke="#000000" d="M 1147 440 L 1240 440 L 1240 608 L 1272 608" stroke-miterlimit="10"/></g><g transform="translate(-382,-70) scale(1,1)"><path fill="#000000" stroke="none" d="M 1261.837325142376 612.209517756016 L 1272 608 L 1261.837325142376 603.790482243984 L 1250 608"/></g><g transform="translate(-382,-70) scale(1,1)"><path fill="none" stroke="#000000" d="M 1261.837325142376 612.209517756016 L 1272 608 L 1261.837325142376 603.790482243984 L 1250 608 L 1261.837325142376 612.209517756016" stroke-miterlimit="10"/></g><g transform="translate(-382,-70) scale(1,1)"><path fill="none" stroke="#000000" d="M 1148 637 L 1271 635" stroke-miterlimit="10"/></g><g transform="translate(-382,-70) scale(1,1)"><path fill="#000000" stroke="none" d="M 1260.9071067419811 639.3741862880125 L 1271 635 L 1260.770229949036 630.9562635218897 L 1249.0029077451884 635.3576762968262"/></g><g transform="translate(-382,-70) scale(1,1)"><path fill="none" stroke="#000000" d="M 1260.9071067419811 639.3741862880125 L 1271 635 L 1260.770229949036 630.9562635218897 L 1249.0029077451884 635.3576762968262 L 1260.9071067419811 639.3741862880125" stroke-miterlimit="10"/></g><g transform="translate(-382,-70) scale(1,1)"><path fill="none" stroke="#000000" d="M 1148 856 L 1271 856" stroke-miterlimit="10"/></g><g transform="translate(-382,-70) scale(1,1)"><path fill="#000000" stroke="none" d="M 1260.837325142376 860.209517756016 L 1271 856 L 1260.837325142376 851.790482243984 L 1249 856"/></g><g transform="translate(-382,-70) scale(1,1)"><path fill="none" stroke="#000000" d="M 1260.837325142376 860.209517756016 L 1271 856 L 1260.837325142376 851.790482243984 L 1249 856 L 1260.837325142376 860.209517756016" stroke-miterlimit="10"/></g><g transform="translate(-382,-70) scale(1,1)"><path fill="none" stroke="#000000" d="M 1147 464 L 1192 464 L 1192 816 L 1272 816" stroke-miterlimit="10"/></g><g transform="translate(-382,-70) scale(1,1)"><path fill="#000000" stroke="none" d="M 1261.837325142376 820.209517756016 L 1272 816 L 1261.837325142376 811.790482243984 L 1250 816"/></g><g transform="translate(-382,-70) scale(1,1)"><path fill="none" stroke="#000000" d="M 1261.837325142376 820.209517756016 L 1272 816 L 1261.837325142376 811.790482243984 L 1250 816 L 1261.837325142376 820.209517756016" stroke-miterlimit="10"/></g></g></svg>